<svg width="31" height="31" viewBox="0 0 31 31" fill="none" xmlns="http://www.w3.org/2000/svg">
<path d="M15.4267 0C10.3267 0 5.7993 2.48918 2.9889 6.31463C2.56851 6.84524 2.20079 7.41941 1.89289 8.03033C0.686995 10.2275 0 12.7483 0 15.4267C0 23.933 6.92034 30.8533 15.4267 30.8533C23.933 30.8533 30.8533 23.933 30.8533 15.4267C30.8533 6.92034 23.933 0 15.4267 0ZM13.6693 19.2206C11.1018 19.2206 9.01287 17.1053 9.01287 14.5052C9.01287 11.9052 11.1018 9.78992 13.6693 9.78992C16.2369 9.78992 18.3258 11.9052 18.3258 14.5052C18.3258 17.1053 16.2369 19.2206 13.6693 19.2206ZM13.6693 8.40748C10.3394 8.40748 7.63042 11.1428 7.63042 14.5052C7.63042 17.8677 10.3394 20.603 13.6693 20.603C13.7071 20.603 13.7435 20.5978 13.7809 20.5972C12.8302 20.9691 11.7986 21.1749 10.7198 21.1749C6.02234 21.1749 2.20046 17.3075 2.20046 12.5542C2.20046 11.1636 2.52982 9.85007 3.11017 8.68546C3.40636 8.1464 3.73799 7.62945 4.10019 7.1359C5.6634 5.18416 8.04951 3.93339 10.7198 3.93339C15.2752 3.93339 19.0066 7.56995 19.2287 12.124C18.3083 9.94208 16.1634 8.40748 13.6693 8.40748ZM15.4267 29.4709C7.84696 29.4709 1.65425 23.4339 1.3948 15.9163C2.76489 19.783 6.42712 22.5577 10.7198 22.5577C16.18 22.5577 20.6219 18.0703 20.6219 12.5545C20.6219 7.03869 16.1797 2.55128 10.7195 2.55128C10.3791 2.55128 10.0425 2.56883 9.71059 2.60265C11.4578 1.82071 13.3914 1.38212 15.4263 1.38212C23.1702 1.38212 29.4706 7.68244 29.4706 15.4263C29.4706 23.1702 23.1706 29.4709 15.4267 29.4709Z" fill="url(#paint0_linear_15762_49144)"/>
<defs>
<linearGradient id="paint0_linear_15762_49144" x1="0" y1="0" x2="30.8533" y2="0" gradientUnits="userSpaceOnUse">
<stop stop-color="#8F5E25"/>
<stop offset="0.5" stop-color="#FBF4A1"/>
<stop offset="1" stop-color="#8F5E25"/>
</linearGradient>
</defs>
</svg>
