<svg width="151" height="32" viewBox="0 0 151 32" fill="none" xmlns="http://www.w3.org/2000/svg">
<path d="M15.9267 0.853516C10.8267 0.853516 6.2993 3.34269 3.4889 7.16815C3.06851 7.69875 2.70079 8.27293 2.39289 8.88385C1.18699 11.0811 0.5 13.6018 0.5 16.2802C0.5 24.7865 7.42034 31.7068 15.9267 31.7068C24.433 31.7068 31.3533 24.7865 31.3533 16.2802C31.3533 7.77386 24.433 0.853516 15.9267 0.853516ZM14.1693 20.0741C11.6018 20.0741 9.51287 17.9588 9.51287 15.3588C9.51287 12.7587 11.6018 10.6434 14.1693 10.6434C16.7369 10.6434 18.8258 12.7587 18.8258 15.3588C18.8258 17.9588 16.7369 20.0741 14.1693 20.0741ZM14.1693 9.26099C10.8394 9.26099 8.13042 11.9963 8.13042 15.3588C8.13042 18.7212 10.8394 21.4565 14.1693 21.4565C14.2071 21.4565 14.2435 21.4513 14.2809 21.4507C13.3302 21.8226 12.2986 22.0284 11.2198 22.0284C6.52234 22.0284 2.70046 18.161 2.70046 13.4077C2.70046 12.0171 3.02982 10.7036 3.61017 9.53898C3.90636 8.99992 4.23799 8.48296 4.60019 7.98942C6.1634 6.03768 8.54951 4.78691 11.2198 4.78691C15.7752 4.78691 19.5066 8.42346 19.7287 12.9775C18.8083 10.7956 16.6634 9.26099 14.1693 9.26099ZM15.9267 30.3244C8.34696 30.3244 2.15425 24.2874 1.8948 16.7698C3.26489 20.6366 6.92712 23.4112 11.2198 23.4112C16.68 23.4112 21.1219 18.9238 21.1219 13.408C21.1219 7.89221 16.6797 3.40479 11.2195 3.40479C10.8791 3.40479 10.5425 3.42235 10.2106 3.45616C11.9578 2.67423 13.8914 2.23563 15.9263 2.23563C23.6702 2.23563 29.9706 8.53596 29.9706 16.2799C29.9706 24.0237 23.6706 30.3244 15.9267 30.3244Z" fill="url(#paint0_linear_4409_7524)"/>
<path d="M42.1367 8.8514V13.5786H47.1227V8.8514H49.8313V21.1697H47.1227V15.8559H42.1367V21.1697H39.428V8.8514H42.1367ZM54.4723 8.8514V10.8699H52.0224V8.8514H54.4723ZM54.4723 12.2502V21.1697H52.0224V12.2502H54.4723ZM61.5286 12.0086C62.6672 12.0086 63.4924 12.2962 64.0043 12.8712C64.5162 13.4463 64.772 14.3607 64.772 15.6144V21.1697H62.3222V16.1147C62.3222 15.3786 62.2043 14.8323 61.9685 14.4757C61.7327 14.1192 61.3273 13.9409 60.7522 13.9409C60.0851 13.9409 59.6021 14.1422 59.303 14.5447C59.0039 14.9473 58.8544 15.6086 58.8544 16.5288V21.1697H56.4046V12.2502H58.7336V13.4923H58.7854C59.395 12.5032 60.3094 12.0086 61.5286 12.0086ZM75.3306 8.8514V21.1697H73.0015V20.0311H72.967C72.4379 20.9512 71.535 21.4113 70.2584 21.4113C69.0276 21.4113 68.053 20.9627 67.334 20.0656C66.6151 19.1684 66.2558 18.0241 66.2558 16.6323C66.2558 15.2751 66.6209 14.1652 67.3513 13.3026C68.0816 12.4399 69.0334 12.0086 70.2066 12.0086C70.7472 12.0086 71.2562 12.1208 71.7334 12.345C72.2107 12.5693 72.5817 12.9 72.8462 13.3371H72.8807V8.8514H75.3306ZM68.7056 16.7013C68.7056 17.5179 68.8983 18.1994 69.2836 18.7457C69.6689 19.292 70.1951 19.5652 70.8622 19.5652C71.5638 19.5652 72.09 19.3093 72.4408 18.7975C72.7916 18.2857 72.967 17.5812 72.967 16.6841C72.967 15.7869 72.783 15.091 72.4149 14.5965C72.0469 14.102 71.5236 13.8546 70.8449 13.8546C70.1433 13.8546 69.6114 14.1134 69.2491 14.631C68.8868 15.1486 68.7056 15.8387 68.7056 16.7013ZM81.6795 8.55811C83.1863 8.55811 84.3853 8.90317 85.2767 9.59326C86.1681 10.2833 86.6138 11.261 86.6138 12.5262H83.9914C83.9569 11.9051 83.747 11.4393 83.3617 11.1287C82.9764 10.8182 82.3811 10.6629 81.576 10.6629C81.0124 10.6629 80.5581 10.7866 80.2131 11.0338C79.868 11.2811 79.6955 11.6233 79.6955 12.0604C79.6955 12.4169 79.8019 12.6757 80.0147 12.8367C80.2274 12.9978 80.5294 13.1415 80.9204 13.268C81.3115 13.3945 81.9959 13.5786 82.9735 13.8201C83.9972 14.0732 84.785 14.3492 85.3371 14.6482C85.8892 14.9473 86.309 15.3297 86.5965 15.7955C86.884 16.2614 87.0278 16.8335 87.0278 17.5122C87.0278 18.2943 86.8208 18.9901 86.4067 19.5997C85.9927 20.2093 85.3888 20.6722 84.5952 20.9886C83.8016 21.3049 82.9045 21.463 81.9038 21.463C80.3741 21.463 79.1175 21.0806 78.1341 20.3157C77.1507 19.5508 76.659 18.5013 76.659 17.1671V17.0808H79.2814C79.2814 17.8055 79.5287 18.3662 80.0233 18.763C80.5179 19.1598 81.1734 19.3582 81.9901 19.3582C82.7147 19.3582 83.2984 19.2288 83.7412 18.97C84.184 18.7112 84.4054 18.3288 84.4054 17.8227C84.4054 17.4892 84.2847 17.2074 84.0431 16.9774C83.8016 16.7473 83.4796 16.5604 83.077 16.4167C82.6744 16.2729 81.9959 16.0917 81.0412 15.8732C79.937 15.5972 79.1319 15.3039 78.6258 14.9933C78.1198 14.6828 77.7345 14.3061 77.4699 13.8633C77.2054 13.4205 77.0731 12.8885 77.0731 12.2674C77.0731 11.4968 77.2945 10.824 77.7373 10.2489C78.1802 9.67376 78.7581 9.24822 79.4712 8.97218C80.1843 8.69614 80.9204 8.55811 81.6795 8.55811ZM90.8924 8.8514V10.8699H88.4425V8.8514H90.8924ZM90.8924 12.2502V21.1697H88.4425V12.2502H90.8924ZM96.3787 12.0086C97.6094 12.0086 98.4951 12.4859 99.0356 13.4406H99.0701V12.2502H101.399V20.6176C101.399 21.9058 101 22.8834 100.2 23.5506C99.4008 24.2177 98.2649 24.5512 96.7928 24.5512C95.6656 24.5512 94.7368 24.2809 94.0065 23.7403C93.2762 23.1998 92.8879 22.5154 92.8419 21.6873H95.2746C95.4701 22.5039 96.0797 22.9122 97.1033 22.9122C97.7359 22.9122 98.2219 22.7253 98.5612 22.3515C98.9004 21.9777 99.0701 21.4458 99.0701 20.7557V19.5307H99.0356C98.7941 19.9678 98.4404 20.3071 97.9746 20.5486C97.5088 20.7902 96.9711 20.9109 96.3615 20.9109C95.1653 20.9109 94.2308 20.5199 93.5579 19.7378C92.8851 18.9556 92.5486 17.8515 92.5486 16.4253C92.5486 15.1601 92.9023 14.1077 93.6097 13.2681C94.317 12.4284 95.2401 12.0086 96.3787 12.0086ZM94.9985 16.3908C94.9985 17.2304 95.1739 17.886 95.5247 18.3576C95.8755 18.8292 96.3615 19.0649 96.9826 19.0649C97.6152 19.0649 98.1213 18.8377 98.5008 18.3834C98.8804 17.9291 99.0701 17.3282 99.0701 16.5805C99.0701 15.6834 98.889 15.0048 98.5267 14.5447C98.1644 14.0847 97.644 13.8546 96.9653 13.8546C96.3327 13.8546 95.8468 14.0933 95.5075 14.5706C95.1682 15.0479 94.9985 15.6547 94.9985 16.3908ZM105.816 8.8514V13.4923H105.868C106.144 13.0323 106.517 12.67 106.989 12.4054C107.461 12.1409 107.961 12.0086 108.49 12.0086C109.629 12.0086 110.454 12.2962 110.966 12.8712C111.478 13.4463 111.733 14.355 111.733 15.5971V21.1697H109.284V16.0975C109.284 15.3729 109.166 14.8323 108.93 14.4757C108.694 14.1192 108.289 13.9409 107.714 13.9409C107.058 13.9409 106.578 14.1393 106.273 14.5361C105.968 14.9329 105.816 15.5857 105.816 16.4943V21.1697H103.366V8.8514H105.816ZM116.702 9.57601L116.702 12.2502H118.497V13.8891H116.702V18.3058C116.702 18.7199 116.771 18.9959 116.909 19.1339C117.047 19.2719 117.323 19.3409 117.737 19.3409C118.036 19.3409 118.289 19.318 118.497 19.2719V21.187C118.151 21.2445 117.668 21.2732 117.047 21.2732C116.104 21.2732 115.403 21.1122 114.942 20.7902C114.482 20.4681 114.252 19.9103 114.252 19.1167V13.8891H112.769V12.2502H114.252V9.57601H116.702ZM126.191 8.8514L128.934 17.5122H128.969L131.746 8.8514H134.541L130.453 21.1697H127.399L123.396 8.8514H126.191ZM138.302 8.8514V21.1697H135.594V8.8514H138.302ZM146.256 8.8514C147.567 8.8514 148.602 9.20796 149.361 9.92106C150.12 10.6342 150.5 11.5946 150.5 12.8022C150.5 14.0214 150.12 14.9847 149.361 15.692C148.602 16.3994 147.573 16.7531 146.273 16.7531H143.392V21.1697H140.683V8.8514H146.256ZM145.549 14.6483C146.331 14.6483 146.914 14.5045 147.3 14.2169C147.685 13.9294 147.878 13.4578 147.878 12.8022C147.878 12.1696 147.691 11.7038 147.317 11.4048C146.943 11.1057 146.359 10.9562 145.566 10.9562H143.392V14.6483H145.549Z" fill="url(#paint1_linear_4409_7524)"/>
<defs>
<linearGradient id="paint0_linear_4409_7524" x1="0.5" y1="0.853516" x2="31.3533" y2="0.853516" gradientUnits="userSpaceOnUse">
<stop stop-color="#8F5E25"/>
<stop offset="0.5" stop-color="#FBF4A1"/>
<stop offset="1" stop-color="#8F5E25"/>
</linearGradient>
<linearGradient id="paint1_linear_4409_7524" x1="39.428" y1="8.55811" x2="150.5" y2="8.55811" gradientUnits="userSpaceOnUse">
<stop stop-color="#8F5E25"/>
<stop offset="0.5" stop-color="#FBF4A1"/>
<stop offset="1" stop-color="#8F5E25"/>
</linearGradient>
</defs>
</svg>
